<?xml version="1.0" encoding="UTF-8"?>
<svg width="40px" height="40px" viewBox="0 0 40 40" version="1.1" xmlns="http://www.w3.org/2000/svg" xmlns:xlink="http://www.w3.org/1999/xlink">
<style type="text/css">
	.st0{fill:#BDBDBD;}
</style>
<path class="st0" d="M20,0C8.9,0,0,8.9,0,20s8.9,20,20,20s20-8.9,20-20S31.1,0,20,0z M15.6,30.8c0,0.3,0,0.4-0.2,0.6
	c-0.1,0.2-0.3,0.3-0.5,0.3c-0.2,0-0.3,0-0.5-0.1l-6.8-3.4c-0.2-0.1-0.4-0.3-0.5-0.5C7,27.4,6.9,27.2,6.9,27V10.3
	c0-0.2,0-0.3,0.1-0.5c0.1-0.1,0.3-0.2,0.4-0.2c0.1,0,0.3,0.1,0.6,0.2l7.5,3.7c0,0,0,0,0,0.1L15.6,30.8L15.6,30.8z M16.6,23.9v-8.8
	l7.8,12.7L16.6,23.9z M19.2,17.6L24,9.9c0.2-0.3,0.4-0.4,0.8-0.4c0.1,0,0.3,0,0.4,0.1l7.9,4c0,0,0,0,0,0.1c0,0-1.2,2.1-3.7,6.2
	c-2.5,4.1-4,6.5-4.4,7.1L19.2,17.6z M33.1,30.8c0,0.3-0.1,0.4-0.2,0.6c-0.1,0.2-0.3,0.2-0.6,0.2c-0.2,0-0.5,0-0.7-0.2l-6.5-3.2
	l7.9-12.9V30.8z"/>
</svg>
