<?xml version="1.0" encoding="utf-8"?>
<!-- Generator: Adobe Illustrator 21.0.0, SVG Export Plug-In . SVG Version: 6.00 Build 0)  -->
<svg version="1.1" id="图层_1" xmlns="http://www.w3.org/2000/svg" xmlns:xlink="http://www.w3.org/1999/xlink" x="0px" y="0px"
	 viewBox="0 0 100 100" style="enable-background:new 0 0 100 100;" xml:space="preserve">
<style type="text/css">
	.st0{fill:#BDBDBD;}
</style>
<path class="st0" d="M49.5,4C23.8,4,3,24.8,3,50.5C3,76.2,23.8,97,49.5,97S96,76.2,96,50.5C96,24.8,75.2,4,49.5,4z M39.3,75.6
	c0,0.6-0.1,1-0.4,1.4c-0.3,0.4-0.7,0.6-1.2,0.6c-0.4,0-0.8-0.1-1.1-0.3l-15.8-7.9c-0.5-0.2-0.9-0.6-1.2-1.1
	c-0.3-0.5-0.5-1.1-0.5-1.6V27.9c0-0.5,0.1-0.8,0.3-1.2c0.2-0.3,0.6-0.5,1-0.5c0.3,0,0.8,0.2,1.5,0.5l17.4,8.7
	c0.1,0.1,0.1,0.1,0.1,0.2V75.6z M41.5,59.5V39.1l18.2,29.5L41.5,59.5z M47.7,44.9l11-17.9c0.4-0.6,1-1,1.8-1c0.3,0,0.6,0.1,0.9,0.2
	l18.4,9.2c0.1,0,0.1,0.1,0.1,0.2c0,0.1-2.9,4.8-8.7,14.3c-5.8,9.5-9.2,15-10.2,16.6L47.7,44.9z M80,75.6c0,0.6-0.2,1-0.5,1.4
	c-0.3,0.4-0.7,0.5-1.3,0.5c-0.5,0-1.1-0.1-1.6-0.4l-15-7.5L80,39.7V75.6z"/>
</svg>
